<svg width="1200" height="320" viewBox="0 0 1200 320" fill="none" xmlns="http://www.w3.org/2000/svg">
  <defs>
    <linearGradient id="bg" x1="0" y1="0" x2="1200" y2="320" gradientUnits="userSpaceOnUse">
      <stop stop-color="#04070F"/>
      <stop offset="0.55" stop-color="#0B1026"/>
      <stop offset="1" stop-color="#12263A"/>
    </linearGradient>
    <linearGradient id="ring" x1="780" y1="70" x2="1140" y2="250" gradientUnits="userSpaceOnUse">
      <stop stop-color="#58A6FF"/>
      <stop offset="1" stop-color="#F59E0B"/>
    </linearGradient>
    <linearGradient id="line" x1="60" y1="230" x2="760" y2="200" gradientUnits="userSpaceOnUse">
      <stop stop-color="#10B981"/>
      <stop offset="1" stop-color="#58A6FF"/>
    </linearGradient>
    <filter id="glow" x="0" y="0" width="1200" height="320" filterUnits="userSpaceOnUse" color-interpolation-filters="sRGB">
      <feGaussianBlur stdDeviation="1.5" result="blur"/>
      <feMerge>
        <feMergeNode in="blur"/>
        <feMergeNode in="SourceGraphic"/>
      </feMerge>
    </filter>
  </defs>

  <rect width="1200" height="320" fill="url(#bg)"/>

  <g opacity="0.75" fill="#C9D1D9">
    <circle cx="80" cy="58" r="1.6"/>
    <circle cx="140" cy="110" r="1.2"/>
    <circle cx="220" cy="48" r="1.1"/>
    <circle cx="280" cy="95" r="1.5"/>
    <circle cx="340" cy="35" r="1.1"/>
    <circle cx="420" cy="92" r="1.3"/>
    <circle cx="520" cy="54" r="1.4"/>
    <circle cx="610" cy="120" r="1.2"/>
    <circle cx="700" cy="68" r="1.5"/>
    <circle cx="780" cy="42" r="1.1"/>
    <circle cx="890" cy="56" r="1.4"/>
    <circle cx="980" cy="92" r="1.2"/>
    <circle cx="1080" cy="48" r="1.5"/>
  </g>

  <g filter="url(#glow)">
    <path d="M48 232C190 208 315 241 450 220C574 201 665 171 770 186" stroke="url(#line)" stroke-width="2.5" stroke-linecap="round"/>
    <circle cx="450" cy="220" r="4" fill="#10B981"/>
    <circle cx="770" cy="186" r="4" fill="#58A6FF"/>
  </g>

  <ellipse cx="980" cy="160" rx="168" ry="80" stroke="url(#ring)" stroke-width="2.5" opacity="0.85"/>
  <ellipse cx="980" cy="160" rx="124" ry="58" stroke="#58A6FF" stroke-opacity="0.6" stroke-width="1.5"/>
  <ellipse cx="980" cy="160" rx="88" ry="38" stroke="#F59E0B" stroke-opacity="0.5" stroke-width="1.2"/>
  <circle cx="980" cy="160" r="8" fill="#F59E0B"/>

  <text x="60" y="96" fill="#E6EDF3" font-family="'Segoe UI', 'Helvetica Neue', Arial, sans-serif" font-size="48" font-weight="700">PICARD XIE</text>
  <text x="60" y="132" fill="#9FB3C8" font-family="'Fira Code', 'Cascadia Code', Consolas, monospace" font-size="20">Interstellar x Steins;Gate  |  Worldline 1.048596</text>
  <text x="60" y="168" fill="#C9D1D9" font-family="'Fira Code', 'Cascadia Code', Consolas, monospace" font-size="16">Mission: Build AI-native systems for long-horizon impact.</text>

  <rect x="60" y="190" width="328" height="56" rx="10" fill="#0D1117" fill-opacity="0.72" stroke="#30363D"/>
  <text x="76" y="212" fill="#58A6FF" font-family="'Fira Code', Consolas, monospace" font-size="13">TEMPORAL CONSOLE</text>
  <text x="76" y="233" fill="#E6EDF3" font-family="'Fira Code', Consolas, monospace" font-size="13">DIVERGENCE: 1.048596</text>
</svg>
