<svg width="1200" height="320" viewBox="0 0 1200 320" fill="none" xmlns="http://www.w3.org/2000/svg">
  <defs>
    <linearGradient id="bg" x1="0" y1="0" x2="1200" y2="320" gradientUnits="userSpaceOnUse">
      <stop stop-color="#05070F"/>
      <stop offset="0.5" stop-color="#0C1328"/>
      <stop offset="1" stop-color="#132943"/>
    </linearGradient>
    <linearGradient id="halo" x1="760" y1="70" x2="1120" y2="250" gradientUnits="userSpaceOnUse">
      <stop stop-color="#63B3FF"/>
      <stop offset="1" stop-color="#F6AE2D"/>
    </linearGradient>
    <linearGradient id="path" x1="70" y1="230" x2="760" y2="200" gradientUnits="userSpaceOnUse">
      <stop stop-color="#2DD4BF"/>
      <stop offset="1" stop-color="#63B3FF"/>
    </linearGradient>
    <filter id="soft" x="0" y="0" width="1200" height="320" filterUnits="userSpaceOnUse" color-interpolation-filters="sRGB">
      <feGaussianBlur stdDeviation="1.3" result="blur"/>
      <feMerge>
        <feMergeNode in="blur"/>
        <feMergeNode in="SourceGraphic"/>
      </feMerge>
    </filter>
  </defs>

  <rect width="1200" height="320" fill="url(#bg)"/>

  <g opacity="0.72" fill="#C9D1D9">
    <circle cx="88" cy="58" r="1.5"/>
    <circle cx="162" cy="96" r="1.1"/>
    <circle cx="250" cy="44" r="1.3"/>
    <circle cx="320" cy="108" r="1.2"/>
    <circle cx="404" cy="52" r="1.4"/>
    <circle cx="504" cy="88" r="1.1"/>
    <circle cx="614" cy="62" r="1.4"/>
    <circle cx="714" cy="96" r="1.2"/>
    <circle cx="826" cy="48" r="1.3"/>
    <circle cx="946" cy="70" r="1.4"/>
    <circle cx="1068" cy="54" r="1.2"/>
  </g>

  <g filter="url(#soft)">
    <path d="M64 232C194 203 318 246 452 220C578 196 672 172 772 186" stroke="url(#path)" stroke-width="2.6" stroke-linecap="round"/>
    <circle cx="452" cy="220" r="4" fill="#2DD4BF"/>
    <circle cx="772" cy="186" r="4" fill="#63B3FF"/>
  </g>

  <ellipse cx="984" cy="160" rx="170" ry="80" stroke="url(#halo)" stroke-width="2.6" opacity="0.88"/>
  <ellipse cx="984" cy="160" rx="124" ry="58" stroke="#63B3FF" stroke-opacity="0.62" stroke-width="1.5"/>
  <ellipse cx="984" cy="160" rx="88" ry="38" stroke="#F6AE2D" stroke-opacity="0.55" stroke-width="1.2"/>
  <circle cx="984" cy="160" r="8" fill="#F6AE2D"/>

  <text x="64" y="98" fill="#E6EDF3" font-family="'Segoe UI', 'Helvetica Neue', Arial, sans-serif" font-size="48" font-weight="700">PICARD XIE</text>
  <text x="64" y="136" fill="#9FB3C8" font-family="'Fira Code', 'Cascadia Code', Consolas, monospace" font-size="20">Long-Horizon Builder  |  1.048596</text>
  <text x="64" y="170" fill="#C9D1D9" font-family="'Fira Code', 'Cascadia Code', Consolas, monospace" font-size="16">Practical AI systems. Reliable delivery. Compounding leverage.</text>

  <rect x="64" y="192" width="324" height="54" rx="10" fill="#0D1117" fill-opacity="0.72" stroke="#30363D"/>
  <text x="80" y="214" fill="#63B3FF" font-family="'Fira Code', Consolas, monospace" font-size="13">MISSION CONSOLE</text>
  <text x="80" y="234" fill="#E6EDF3" font-family="'Fira Code', Consolas, monospace" font-size="13">STATE: ONLINE</text>
</svg>
